<svg width="58" height="58" viewBox="0 0 58 58" fill="none" xmlns="http://www.w3.org/2000/svg">
<g filter="url(#filter0_d)">
<circle cx="25" cy="25" r="21" fill="white"/>
</g>
<path d="M36.96 12H13.04C12.4647 12 12 12.4469 12 13V36C12 36.5531 12.4647 37 13.04 37H36.96C37.5352 37 38 36.5531 38 36V13C38 12.4469 37.5352 12 36.96 12ZM19.7122 33.3031H15.8545V21.3719H19.7122V33.3031ZM17.785 19.7406C17.3428 19.7406 16.9105 19.6145 16.5427 19.3783C16.175 19.142 15.8884 18.8063 15.7192 18.4134C15.55 18.0205 15.5057 17.5882 15.592 17.1712C15.6782 16.7541 15.8912 16.371 16.2039 16.0703C16.5166 15.7697 16.915 15.5649 17.3488 15.4819C17.7825 15.399 18.2321 15.4416 18.6407 15.6043C19.0493 15.767 19.3985 16.0426 19.6442 16.3961C19.8899 16.7497 20.021 17.1654 20.021 17.5906C20.0177 18.7781 19.0167 19.7406 17.785 19.7406ZM34.1552 33.3031H30.3007V27.5C30.3007 26.1156 30.2747 24.3375 28.2955 24.3375C26.2902 24.3375 25.9815 25.8438 25.9815 27.4V33.3031H22.1302V21.3719H25.8287V23.0031H25.8807C26.3942 22.0656 27.652 21.075 29.5305 21.075C33.437 21.075 34.1552 23.5469 34.1552 26.7594V33.3031Z" fill="#252525"/>
<defs>
<filter id="filter0_d" x="0" y="0" width="58" height="58" filterUnits="userSpaceOnUse" color-interpolation-filters="sRGB">
<feFlood flood-opacity="0" result="BackgroundImageFix"/>
<feColorMatrix in="SourceAlpha" type="matrix" values="0 0 0 0 0 0 0 0 0 0 0 0 0 0 0 0 0 0 127 0"/>
<feOffset dx="4" dy="4"/>
<feGaussianBlur stdDeviation="4"/>
<feColorMatrix type="matrix" values="0 0 0 0 0.270588 0 0 0 0 0.266667 0 0 0 0 0.266667 0 0 0 0.25 0"/>
<feBlend mode="normal" in2="BackgroundImageFix" result="effect1_dropShadow"/>
<feBlend mode="normal" in="SourceGraphic" in2="effect1_dropShadow" result="shape"/>
</filter>
</defs>
</svg>
