<svg width="90" height="88" viewBox="0 0 90 88" fill="none" xmlns="http://www.w3.org/2000/svg">
<ellipse cx="45" cy="44" rx="45" ry="44" fill="white"/>
<path d="M30.7148 29.8171C30.7148 28.279 31.3169 26.8039 32.3885 25.7162C33.4601 24.6286 34.9136 24.0176 36.4291 24.0176C37.9446 24.0176 39.3981 24.6286 40.4697 25.7162C41.5413 26.8039 42.1434 28.279 42.1434 29.8171C42.1434 31.3553 41.5413 32.8304 40.4697 33.918C39.3981 35.0057 37.9446 35.6167 36.4291 35.6167C34.9136 35.6167 33.4601 35.0057 32.3885 33.918C31.3169 32.8304 30.7148 31.3553 30.7148 29.8171ZM36.4291 26.9174C35.6713 26.9174 34.9446 27.2229 34.4088 27.7667C33.873 28.3105 33.572 29.0481 33.572 29.8171C33.572 30.5862 33.873 31.3238 34.4088 31.8676C34.9446 32.4114 35.6713 32.7169 36.4291 32.7169C37.1869 32.7169 37.9136 32.4114 38.4494 31.8676C38.9852 31.3238 39.2862 30.5862 39.2862 29.8171C39.2862 29.0481 38.9852 28.3105 38.4494 27.7667C37.9136 27.2229 37.1869 26.9174 36.4291 26.9174Z" fill="#3C185B"/>
<path d="M50.0827 34.4108C49.4841 33.9474 48.9816 33.3685 48.6041 32.7074C48.2267 32.0463 47.9816 31.316 47.8831 30.5585C47.7846 29.801 47.8345 29.0312 48.0301 28.2933C48.2256 27.5554 48.5629 26.8641 49.0225 26.2589C49.4821 25.6537 50.055 25.1467 50.7083 24.767C51.3616 24.3872 52.0824 24.1422 52.8293 24.0461C53.5761 23.95 54.3343 24.0045 55.0604 24.2067C55.7864 24.4089 56.4659 24.7547 57.0598 25.2243C58.2292 26.1737 58.9846 27.551 59.1636 29.06C59.3426 30.569 58.9308 32.089 58.0168 33.2929C57.1027 34.4969 55.7596 35.2885 54.2763 35.4976C52.793 35.7066 51.2882 35.3164 50.0855 34.4108H50.0827ZM53.5712 26.9178C52.8135 26.9178 52.0867 27.2233 51.5509 27.7671C51.0151 28.3109 50.7141 29.0485 50.7141 29.8175C50.7141 30.5866 51.0151 31.3242 51.5509 31.868C52.0867 32.4118 52.8135 32.7173 53.5712 32.7173C54.329 32.7173 55.0557 32.4118 55.5915 31.868C56.1273 31.3242 56.4284 30.5866 56.4284 29.8175C56.4284 29.0485 56.1273 28.3109 55.5915 27.7671C55.0557 27.2233 54.329 26.9178 53.5712 26.9178Z" fill="#3C185B"/>
<path d="M29.2857 38.5161H36.9143C36.6 39.4238 36.4286 40.401 36.4286 41.4159H29.2857C28.9068 41.4159 28.5435 41.5687 28.2756 41.8406C28.0077 42.1125 27.8571 42.4813 27.8571 42.8658C27.8571 45.235 28.7857 46.9923 30.2514 48.187C30.9257 48.738 31.7343 49.1816 32.6486 49.5064C31.9772 50.2307 31.4598 51.0875 31.1286 52.0234C30.1695 51.6324 29.2716 51.102 28.4629 50.4488C26.3143 48.6945 25 46.102 25 42.8658C25 41.7122 25.4515 40.6058 26.2553 39.7901C27.059 38.9744 28.1491 38.5161 29.2857 38.5161Z" fill="#3C185B"/>
<path d="M40.0523 38.5168C39.2946 39.8496 39.0895 41.4332 39.4823 42.9194C39.875 44.4056 40.8334 45.6726 42.1466 46.4416C43.4598 47.2107 45.0202 47.4188 46.4846 47.0202C47.949 46.6216 49.1974 45.6489 49.9552 44.3162C50.7129 42.9834 50.918 41.3998 50.5252 39.9136C50.1325 38.4274 49.1741 37.1604 47.8609 36.3914C46.5477 35.6223 44.9873 35.4142 43.5229 35.8128C42.0585 36.2114 40.8101 37.1841 40.0523 38.5168ZM44.3609 38.5893C44.7795 38.4933 45.214 38.494 45.6324 38.5913C46.0507 38.6886 46.4422 38.88 46.7778 39.1513C47.1135 39.4227 47.3849 39.7672 47.5718 40.1592C47.7588 40.5513 47.8566 40.9809 47.858 41.4165C47.8578 41.9621 47.7059 42.4965 47.4198 42.9585C47.1338 43.4204 46.7251 43.791 46.2407 44.0277C45.7564 44.2645 45.2161 44.3578 44.6819 44.2969C44.1477 44.2359 43.6412 44.0233 43.2207 43.6834C42.8003 43.3434 42.4828 42.89 42.3048 42.3752C42.1269 41.8604 42.0957 41.305 42.2147 40.773C42.3338 40.241 42.5984 39.7538 42.978 39.3675C43.3577 38.9813 43.837 38.7115 44.3609 38.5893Z" fill="#3C185B"/>
<path d="M59.7488 48.187C59.0745 48.738 58.2659 49.1816 57.3517 49.5064C58.022 50.231 58.5384 51.0877 58.8688 52.0234C59.8402 51.6204 60.7402 51.0955 61.5374 50.4488C63.686 48.6945 65.0002 46.102 65.0002 42.8658C65.0002 41.7122 64.5487 40.6058 63.745 39.7901C62.9413 38.9744 61.8512 38.5161 60.7145 38.5161H53.0859C53.4002 39.4238 53.5717 40.401 53.5717 41.4159H60.7145C61.0934 41.4159 61.4568 41.5687 61.7247 41.8406C61.9926 42.1125 62.1431 42.4813 62.1431 42.8658C62.1431 45.235 61.2145 46.9923 59.7488 48.187Z" fill="#3C185B"/>
<path d="M52.1437 50.1152C53.2804 50.1152 54.3705 50.5735 55.1742 51.3892C55.9779 52.2049 56.4294 53.3112 56.4294 54.4648C56.4294 57.7009 55.118 60.2932 52.9666 62.0475C50.8494 63.7729 48.0094 64.6138 45.0009 64.6138C41.9923 64.6138 39.1523 63.7729 37.0351 62.0475C34.8866 60.2932 33.5723 57.7009 33.5723 54.4648C33.5708 53.8932 33.6806 53.3269 33.8954 52.7985C34.1103 52.2701 34.4259 51.79 34.8242 51.3858C35.2224 50.9816 35.6955 50.6613 36.2161 50.4432C36.7368 50.2252 37.2948 50.1137 37.858 50.1152H52.1437ZM52.1437 53.015H37.858C37.4791 53.015 37.1158 53.1677 36.8478 53.4396C36.5799 53.7115 36.4294 54.0803 36.4294 54.4648C36.4294 56.8339 37.358 58.5911 38.8237 59.7858C40.3266 61.0094 42.4866 61.7141 45.0009 61.7141C47.5151 61.7141 49.6751 61.0094 51.178 59.7858C52.6437 58.5911 53.5723 56.8339 53.5723 54.4648C53.5723 54.0803 53.4218 53.7115 53.1539 53.4396C52.886 53.1677 52.5226 53.015 52.1437 53.015Z" fill="#3C185B"/>
</svg>
