<svg width="90" height="88" viewBox="0 0 90 88" fill="none" xmlns="http://www.w3.org/2000/svg">
<g opacity="0.9">
<path d="M90 44C90 68.3005 69.8528 88 45 88C20.1472 88 0 68.3005 0 44C0 19.6995 20.1472 0 45 0C69.8528 0 90 19.6995 90 44Z" fill="white"/>
<path d="M44.8809 21L44.1509 21.3846L27.4859 30.0009L26.5475 30.4944V33.5134H63.2142V30.4944L62.2759 30.0009L45.6092 21.3846L44.8809 21ZM44.8809 24.9516L54.6725 30.0009H35.0892L44.8809 24.9516ZM29.8809 35.2697V52.8324H28.2142V56.345H61.5475V52.8324H59.8809V35.2697H56.5475V52.8324H53.2142V35.2697H49.8809V52.8324H46.5475V35.2697H43.2142V52.8324H39.8809V35.2697H36.5475V52.8324H33.2142V35.2697H29.8809ZM24.8809 58.1012V61.6138H64.8809V58.1012H24.8809Z" fill="#3C185B"/>
</g>
</svg>
