<svg width="90" height="88" viewBox="0 0 90 88" fill="none" xmlns="http://www.w3.org/2000/svg">
<g opacity="0.9">
<path d="M90 44C90 68.3005 69.8528 88 45 88C20.1472 88 0 68.3005 0 44C0 19.6995 20.1472 0 45 0C69.8528 0 90 19.6995 90 44Z" fill="white"/>
<path d="M45 24L25 29V32.3333L45 27.3333L65 32.3333V29L45 24ZM35.7692 34C30.8046 34 25.9615 36.1883 25.9615 36.1883L25 36.655V62.3333H42.3554C42.8908 63.33 43.8631 64 45 64C46.1354 64 47.1092 63.33 47.6446 62.3333H65V36.6567L64.0385 36.1883C64.0385 36.1883 59.1954 34 54.2308 34C49.7415 34 45.8 35.6333 45 35.98C44.2 35.6333 40.2585 34 35.7692 34ZM35.7692 37.3333C38.7446 37.3333 41.9231 38.375 43.4615 38.9483V57.49C41.7492 56.8783 38.9369 56.0317 35.7692 56.0317C32.5354 56.0317 29.9031 56.8383 28.0769 57.49V38.9483C29.2615 38.4833 32.3846 37.3333 35.7692 37.3333ZM54.2308 37.3333C57.6154 37.3333 60.7385 38.485 61.9231 38.9483V57.49C60.0954 56.84 57.4646 56.0317 54.2308 56.0317C51.0631 56.0317 48.2508 56.8783 46.5385 57.49V38.9483C48.0769 38.375 51.2554 37.3333 54.2308 37.3333Z" fill="#3C185B"/>
</g>
</svg>
