<svg width="90" height="88" viewBox="0 0 90 88" fill="none" xmlns="http://www.w3.org/2000/svg">
<ellipse cx="45" cy="44" rx="45" ry="44" fill="white"/>
<path d="M45 23L44.6001 23.2118L28.6308 32.5471L25 34.6358L27.1143 35.8172V55.3216C26.3516 56.0951 25.8368 57.5061 25.8368 59.1556C25.8368 60.338 26.106 61.4719 26.5852 62.308C27.0643 63.1441 27.7142 63.6138 28.3919 63.6138C29.0695 63.6138 29.7194 63.1441 30.1986 62.308C30.6778 61.4719 30.947 60.338 30.947 59.1556C30.947 57.5061 30.4321 56.0951 29.6694 55.3216V37.3553L32.2245 38.8153V50.2393C32.2245 52.0672 32.8633 53.5829 33.6222 54.6306C34.381 55.6716 35.3239 56.4072 36.4558 57.067C38.7221 58.3821 41.709 59.1556 45 59.1556C48.291 59.1556 51.2779 58.3844 53.5442 57.0647C54.6761 56.4072 55.619 55.6716 56.3778 54.6284C57.1367 53.5829 57.7755 52.0672 57.7755 50.2393V38.8153L61.3692 36.7244L65 34.6358L61.3679 32.5449L45.3986 23.2118L45 23ZM45 27.6699L56.977 34.6358L45 41.6016L33.023 34.6358L45 27.6699ZM34.7796 40.3489L44.6014 46.0598L45 46.2693L45.3999 46.0576L55.2204 40.3467V50.2393C55.2204 50.2616 55.2255 50.5202 54.8205 51.0752C54.4168 51.6325 53.6924 52.3346 52.7445 52.8875C50.8512 53.9864 48.0597 54.6975 45 54.6975C41.9403 54.6975 39.1488 53.9886 37.2542 52.8852C36.3088 52.3346 35.5832 51.6303 35.1795 51.0752C34.7732 50.5179 34.7796 50.2616 34.7796 50.2393V40.3467V40.3489Z" fill="#3C185B"/>
</svg>
